# xmcd
#
# Track frame offsets:
#	150
#	16737
#	39724
#	64509
#	100281
#	133290
#	147193
#
# Disc length: 2262 seconds
#
# Revision: 0
# Processed by: cddbd v1.4PL0 Copyright (c) Steve Scherf et al.
# Submitted via: dBpowerAMP V4.0
#
DISCID=5d08d407
DTITLE=Gene Kilty - Bottles of Wine
DYEAR=1999
DGENRE=Blues
TTITLE0=Blind Side
TTITLE1=More Than a Good Thing
TTITLE2=Soulfood
TTITLE3=Dirty Ol' Blues
TTITLE4=What Can I Do?
TTITLE5=Settle Down
TTITLE6=Tastes Like Blues/Wheels On Fire
EXTD=
EXTT0=
EXTT1=
EXTT2=
EXTT3=
EXTT4=
EXTT5=
EXTT6=
PLAYORDER=
